<svg width="139" height="17" viewBox="0 0 139 17" fill="none" xmlns="http://www.w3.org/2000/svg">
<path d="M32.1898 6.16663H20.5369L20.1193 6.4953V16.6653H23.3251V12.837L23.619 12.5515H32.1898C34.3572 12.5515 35.3544 11.9777 35.3544 10.5067V8.16829C35.3544 6.73776 34.3572 6.16663 32.1898 6.16663ZM32.1898 9.9248C32.1898 10.6199 31.731 10.733 30.6899 10.733H23.674L23.3388 10.4474V8.29222L23.6328 8.00665H30.7119C31.7118 8.00665 32.2118 8.12788 32.2118 8.81486V9.91672L32.1898 9.9248Z" fill="white"/>
<path d="M41.277 8.08749L44.068 12.0908L43.9004 12.4599H37.736L36.1537 14.378H45.3179L45.9826 14.7471L47.4001 16.6653H51.1059L42.9856 6.04541" fill="white"/>
<path d="M78.0543 14.6232V11.7649L78.3894 11.4793H84.595V9.68237H74.7661V16.6653H89.2595V14.8684H78.4307" fill="white"/>
<path d="M89.3858 6.16934H74.7661V8.1306H89.3858V6.16934Z" fill="white"/>
<path d="M58.4816 8.04708H70.2691C70.1015 6.57614 69.1428 6.16125 66.8106 6.16125H58.3552C55.6906 6.16125 54.8555 6.65157 54.8555 8.65323V14.2137C54.8555 16.175 55.6796 16.7057 58.3552 16.7057H66.8023C69.1758 16.7057 70.0988 16.2558 70.1757 14.7444H58.4733L58.1382 14.4185V8.29223" fill="white"/>
<path d="M12.2051 10.2508H3.66729L3.41731 9.96522V8.1683L3.66729 7.96355H15.2048L15.3697 7.59716C14.9961 6.61653 13.9549 6.12622 12.0732 6.12622H4.04089C1.37626 6.12622 0.543913 6.61653 0.543913 8.6182V9.80357C0.543913 11.7621 1.36802 12.2956 4.04089 12.2956H12.5814L12.8314 12.5407V14.4265L12.6226 14.7121H0.293933C0.293933 14.7121 0 14.8764 0 14.9168C0.208775 16.307 1.16749 16.6734 3.45852 16.6734H12.2051C14.8697 16.6734 15.746 16.183 15.746 14.1814V12.7428C15.746 10.7842 14.8697 10.2508 12.2051 10.2508Z" fill="white"/>
<path d="M98.591 6.12622H93.759L93.509 6.61653L98.841 10.4555C99.8409 9.88439 100.964 9.31326 102.137 8.73943" fill="white"/>
<path d="M102.923 13.3166L107.629 16.6653H112.461L112.67 16.2154L105.673 11.191C104.755 11.8861 103.797 12.5811 102.926 13.3166" fill="white"/>
<path d="M97.8824 16.6653H93.5091L93.1355 16.0941C96.0913 13.2735 109.343 1.27697 138.118 0C138.118 0 114.002 0.808209 97.8824 16.6653" fill="#B2B0B2"/>
</svg>
